<svg width="665" height="378" viewBox="0 0 665 378" fill="none" xmlns="http://www.w3.org/2000/svg">
<path opacity="0.1" d="M567.395 192.74C569.349 212.746 587.607 231.798 607.583 249.98C627.56 268.162 649.654 286.211 660.236 305.737C667.042 318.295 668.004 332.657 648.979 342.776C630.671 352.515 599.058 355.66 569.718 357.351C547.653 358.627 524.423 359.374 503.771 355.886C489.443 353.474 477.378 349.165 463.644 346.192C415.841 335.85 356.904 343.159 310.238 354.369C288.348 359.628 188.082 362.935 164.779 366.993C141.477 371.052 114.756 372.921 91.0133 369.378C67.4755 365.86 49.7605 357.474 37.3059 348.39C12.0283 329.94 4.79295 308.197 0.68917 286.997C-8.37804 240.069 74.9511 195.68 78.8605 148.624C80.3137 131.212 81.7873 113.721 89.4013 96.5882C93.6279 87.0753 100.331 77.2548 116.521 70.3561C137.071 61.5879 171.876 59.4169 197.645 65.2905C240.873 75.1442 251.608 102.377 297.998 109.279C323.532 113.072 351.982 109.177 375.663 103.668C426.464 91.8483 471.033 72.0355 529.099 70.9922C569.012 70.2776 608.924 79.7996 627.795 94.5258C647.577 109.961 645.09 131.365 612.342 142.769C578.631 154.471 565.624 175.077 567.395 192.74Z" fill="#0081C3"/>
<path d="M378 313.999C341.677 313.999 306.478 301.405 278.4 278.362C250.322 255.319 231.103 223.253 224.017 187.629C216.931 152.004 222.416 115.024 239.539 82.9903C256.661 50.9566 284.361 25.8509 317.919 11.9508C351.477 -1.9492 388.816 -3.78352 423.575 6.76044C458.333 17.3044 488.361 39.5742 508.541 69.7755C528.72 99.9767 537.804 136.241 534.244 172.388C530.683 208.536 514.7 242.331 489.016 268.015C474.471 282.64 457.169 294.234 438.114 302.127C419.058 310.02 398.625 314.056 378 313.999V313.999ZM378 1.20655C292.095 1.20655 222.207 71.0951 222.207 157C222.207 242.904 292.095 312.792 378 312.792C463.904 312.792 533.792 242.904 533.792 157C533.792 71.0951 463.904 1.20655 378 1.20655V1.20655Z" fill="#CCCCCC"/>
<path d="M378.5 270C352.704 270 327.706 261.055 307.765 244.69C287.824 228.325 274.175 205.553 269.143 180.252C264.11 154.952 268.006 128.689 280.166 105.939C292.326 83.1889 311.999 65.3591 335.831 55.4874C359.663 45.6157 386.182 44.313 410.867 51.8012C435.552 59.2894 456.877 75.1053 471.209 96.5539C485.54 118.003 491.991 143.757 489.463 169.429C486.934 195.101 475.583 219.101 457.342 237.342C447.013 247.728 434.725 255.962 421.192 261.568C407.659 267.174 393.148 270.04 378.5 270V270ZM378.5 47.8569C317.491 47.8569 267.857 97.4911 267.857 158.5C267.857 219.508 317.491 269.142 378.5 269.142C439.508 269.142 489.142 219.508 489.142 158.5C489.142 97.4911 439.508 47.8569 378.5 47.8569V47.8569Z" fill="#CCCCCC"/>
<path d="M322.42 244L359.668 287.407L408.652 311L424.82 273.48L443.684 305.64C443.684 305.64 538 356.56 538 378C538 378 483.988 378 359.668 378C294.769 378 273.517 378 273.517 378H195L214.629 353.88C214.629 353.88 220.019 343.16 236.187 332.44C252.356 321.72 308.946 278.84 308.946 278.84L322.42 244Z" fill="#0081C3"/>
<path d="M292.575 98.7462C292.575 98.7462 277.622 66.0109 316.5 51.1313C316.5 51.1313 349.396 -2.43544 415.188 33.2757C415.188 33.2757 460.047 51.1313 460.047 98.7462C460.047 146.361 475 155.289 475 155.289C475 155.289 452.733 132.556 446.751 114.701C440.77 96.8452 394.255 92.7943 376.311 110.65C358.368 128.505 313.509 125.53 313.509 125.53L316.5 191C316.5 191 301.547 152.313 295.566 152.313C289.585 152.313 283.603 98.7462 292.575 98.7462Z" fill="#164378"/>
<rect x="20" y="115.955" width="203.472" height="129.482" transform="rotate(-8.18128 20 115.955)" fill="#F9F9F9"/>
<rect x="40.064" y="125.529" width="173.876" height="16.66" transform="rotate(-8.18128 40.064 125.529)" fill="#E5E5E5"/>
<rect x="147.166" y="151.244" width="59.1919" height="6.3138" transform="rotate(-8.18128 147.166 151.244)" fill="#E5E5E5"/>
<path d="M93.0787 221.312C112.965 218.453 126.769 200.014 123.91 180.127C121.051 160.24 102.612 146.437 82.725 149.296C62.8383 152.155 49.0347 170.594 51.8938 190.481C54.7528 210.368 73.192 224.171 93.0787 221.312Z" fill="#E5E5E5"/>
<path d="M85.3573 167.605C81.8568 168.108 78.5842 169.638 75.9532 172.002C73.3222 174.365 71.4511 177.455 70.5765 180.882C69.7018 184.308 69.863 187.918 71.0395 191.253C72.216 194.588 74.355 197.499 77.1861 199.618C80.0172 201.738 83.4132 202.97 86.9446 203.159C90.4761 203.349 93.9843 202.486 97.0258 200.682C100.067 198.877 102.505 196.211 104.032 193.021C105.558 189.831 106.104 186.26 105.601 182.76C104.913 178.072 102.398 173.847 98.6046 171.007C94.8117 168.168 90.0491 166.945 85.3573 167.605V167.605ZM86.1207 172.915C87.1708 172.764 88.2422 172.928 89.1992 173.386C90.1563 173.843 90.9561 174.575 91.4974 175.487C92.0388 176.4 92.2974 177.452 92.2406 178.512C92.1838 179.571 91.8142 180.59 91.1783 181.439C90.5425 182.289 89.6691 182.93 88.6686 183.283C87.6681 183.636 86.5854 183.684 85.5574 183.422C84.5294 183.16 83.6023 182.598 82.8933 181.809C82.1844 181.02 81.7254 180.038 81.5744 178.988C81.3768 177.58 81.744 176.152 82.5957 175.014C83.4474 173.876 84.7146 173.122 86.1207 172.915L86.1207 172.915ZM89.7956 198.476C87.6967 198.768 85.5583 198.544 83.5658 197.822C81.5733 197.101 79.7869 195.904 78.3615 194.336C77.9377 190.784 84.652 187.83 88.1918 187.321C91.7316 186.812 99.0062 187.755 99.6002 191.282C98.6728 193.187 97.2955 194.838 95.5872 196.091C93.8789 197.345 91.8911 198.163 89.7956 198.476Z" fill="#0081C3"/>
<rect x="150.851" y="176.877" width="59.1919" height="6.3138" transform="rotate(-8.18128 150.851 176.877)" fill="#E5E5E5"/>
<line x1="400.5" y1="127" x2="400.5" y2="237" stroke="#0081C3"/>
<line x1="373" y1="171.5" x2="432" y2="171.5" stroke="#0081C3"/>
</svg>
